# File created by Blade
# Date/Time:  Thu Sep 25 19:04:16 2014
# Frame Rate: 120.000 fps
#------------------------------------------------------
:FULLY-SPECIFIED
:DEGREES
1109
root 0.218872 30.751619 -5.300388 23.142229 6.729453 2.966993
Spine -3.605561 14.633436 1.674007
Head -27.999707 -9.596105 3.525285
LeftShoulder -16.765880 18.509277 25.741518
LeftArm 16.704651 -20.901515 -35.762300
LeftForeArm 5.636252 -0.000000 13.437558
LeftHand -31.270249 -0.000000 -1.510683
LeftHandThumb1 -26.253704 0.000000 33.147579
RightShoulder -17.195170 17.420126 -39.640457
RightArm -9.340882 9.123028 37.754352
RightForeArm -26.677159 -0.000000 22.409315
RightHand -12.582135 0.000000 -28.124408
RightHandThumb1 -24.326973 -0.000000 -32.862282
LeftUpLeg -22.714516 14.718087 13.655522
LeftLeg -2.553372 -0.000000 0.000000
LeftFoot -1.245531 6.809207 -32.985728
LeftToeBase 10.604884 -0.000000 -0.000000
RightUpLeg -15.195678 -23.879069 -19.541592
RightLeg -1.868051 -0.000000 0.000000
RightFoot -0.386854 -6.634338 16.794931
RightToeBase 2.208748 -0.000000 -0.000000
1110
root 0.185864 30.752504 -5.228552 22.616797 6.420178 2.756626
Spine -3.843944 14.550049 1.524427
Head -27.215823 -9.615811 3.674118
LeftShoulder -16.655255 18.340838 26.000733
LeftArm 16.726366 -21.207933 -35.422203
LeftForeArm 5.699503 -0.000000 13.436121
LeftHand -31.362790 -0.000000 -1.796273
LeftHandThumb1 -26.253704 0.000000 33.147579
RightShoulder -17.177161 17.507503 -39.762422
RightArm -9.435014 9.411439 37.121842
RightForeArm -26.807551 -0.000000 22.482235
RightHand -12.057385 0.000000 -28.701475
RightHandThumb1 -24.326973 -0.000000 -32.862282
LeftUpLeg -21.973747 14.806610 14.042538
LeftLeg -2.480388 -0.000000 0.000000
LeftFoot -1.492153 6.905367 -33.098421
LeftToeBase 10.651545 -0.000000 -0.000000
RightUpLeg -14.765655 -23.517097 -19.527796
RightLeg -1.811452 -0.000000 0.000000
RightFoot -0.473407 -6.408976 16.744787
RightToeBase 2.237290 -0.000000 -0.000000
1111
root 0.158079 30.753419 -5.156256 22.127109 6.114457 2.555226
Spine -4.110556 14.439918 1.399191
Head -26.448907 -9.614590 3.747830
LeftShoulder -16.614196 18.214423 26.191272
LeftArm 16.790295 -21.536633 -35.080955
LeftForeArm 5.798994 0.000000 13.425736
LeftHand -31.311470 -0.000000 -1.956785
LeftHandThumb1 -26.253704 0.000000 33.147579
RightShoulder -17.247084 17.569677 -39.938922
RightArm -9.332740 9.595414 36.588518
RightForeArm -26.962102 -0.000000 22.490740
RightHand -12.381214 -0.000000 -29.029898
RightHandThumb1 -24.326973 -0.000000 -32.862282
LeftUpLeg -21.277720 15.009553 14.359781
LeftLeg -2.411019 -0.000000 0.000000
LeftFoot -1.661145 6.887607 -33.119126
LeftToeBase 10.639403 -0.000000 -0.000000
RightUpLeg -14.332938 -23.138706 -19.525324
RightLeg -1.808624 -0.000000 0.000000
RightFoot -0.528040 -6.227158 16.746827
RightToeBase 2.194079 -0.000000 -0.000000
1112
root 0.127765 30.754150 -5.085870 21.657697 5.820177 2.353339
Spine -4.378549 14.305946 1.269249
Head -25.741884 -9.586655 3.848537
LeftShoulder -16.516685 18.087959 26.386644
LeftArm 16.692475 -21.929277 -34.709314
LeftForeArm 5.849357 0.000000 13.546096
LeftHand -31.229581 -0.000000 -1.903845
LeftHandThumb1 -26.253704 0.000000 33.147579
RightShoulder -17.253002 17.633733 -40.058231
RightArm -9.317343 9.768233 35.986975
RightForeArm -27.137920 -0.000000 22.507757
RightHand -12.829993 0.000000 -29.113134
RightHandThumb1 -24.326973 -0.000000 -32.862282
LeftUpLeg -20.604794 15.140299 14.709299
LeftLeg -2.328956 -0.000000 0.000000
LeftFoot -1.865827 6.932718 -33.212638
LeftToeBase 10.647886 -0.000000 -0.000000
RightUpLeg -13.937394 -22.785738 -19.505626
RightLeg -1.769779 -0.000000 0.000000
RightFoot -0.570206 -6.043261 16.819820
RightToeBase 2.067892 -0.000000 -0.000000
1113
root 0.101754 30.755309 -5.019650 21.212816 5.541489 2.165511
Spine -4.648948 14.185782 1.162833
Head -25.032494 -9.572236 3.920459
LeftShoulder -16.402935 18.016128 26.560892
LeftArm 16.689419 -22.412127 -34.390315
LeftForeArm 5.969107 -0.000000 13.533188
LeftHand -31.245121 0.000000 -2.099119
LeftHandThumb1 -26.253704 0.000000 33.147579
RightShoulder -17.283011 17.588830 -40.189663
RightArm -9.187176 9.901902 35.421403
RightForeArm -27.203842 -0.000000 22.479538
RightHand -12.657091 -0.000000 -29.552285
RightHandThumb1 -24.326973 -0.000000 -32.862282
LeftUpLeg -19.968854 15.268944 15.032469
LeftLeg -2.245468 -0.000000 0.000000
LeftFoot -2.058235 6.945695 -33.330258
LeftToeBase 10.650492 -0.000000 -0.000000
RightUpLeg -13.562055 -22.402722 -19.499511
RightLeg -1.721199 -0.000000 0.000000
RightFoot -0.682303 -5.901833 16.778030
RightToeBase 2.209762 -0.000000 -0.000000
1114
root 0.078991 30.756501 -4.954898 20.782578 5.288062 2.010974
Spine -4.909509 14.059593 1.043151
Head -24.372350 -9.578000 3.977840
LeftShoulder -16.270088 17.884960 26.742228
LeftArm 16.641867 -22.867146 -34.064620
LeftForeArm 6.105261 -0.000000 13.546781
LeftHand -31.177700 0.000000 -2.006577
LeftHandThumb1 -26.253704 0.000000 33.147579
RightShoulder -17.337361 17.636684 -40.338024
RightArm -9.161381 9.871385 34.819664
RightForeArm -27.244354 0.000000 22.402481
RightHand -12.240022 -0.000000 -30.330834
RightHandThumb1 -24.326973 -0.000000 -32.862282
LeftUpLeg -19.344938 15.339767 15.333146
LeftLeg -2.174928 -0.000000 0.000000
LeftFoot -2.252471 6.997662 -33.480721
LeftToeBase 10.633599 -0.000000 -0.000000
RightUpLeg -13.170070 -22.039741 -19.523564
RightLeg -1.702350 -0.000000 0.000000
RightFoot -0.747570 -5.793666 16.804771
RightToeBase 2.186382 -0.000000 -0.000000
